<svg xmlns="http://www.w3.org/2000/svg" xmlns:xlink="http://www.w3.org/1999/xlink" width="14" height="14" viewBox="0 0 14 14">
  <defs>
    <clipPath id="clip-path">
      <rect id="Rectangle_1226" data-name="Rectangle 1226" width="14" height="14" transform="translate(372 14)" fill="#b7b7b7" stroke="#707070" stroke-width="1"/>
    </clipPath>
  </defs>
  <g id="Mask_Group_86" data-name="Mask Group 86" transform="translate(-372 -14)" clip-path="url(#clip-path)">
    <g id="time" transform="translate(371.364 13.364)">
      <g id="Layer_2" data-name="Layer 2">
        <path id="Path_223" data-name="Path 223" d="M7.636.636a7,7,0,1,0,7,7,7,7,0,0,0-7-7ZM10,10a.636.636,0,0,1-.9,0L7.186,8.086A.636.636,0,0,1,7,7.636V3.818a.636.636,0,1,1,1.273,0V7.373L10,9.1a.636.636,0,0,1,0,.9Z" fill="#b7b7b7"/>
      </g>
    </g>
  </g>
</svg>
