<svg xmlns="http://www.w3.org/2000/svg" xmlns:xlink="http://www.w3.org/1999/xlink" width="15" height="15" viewBox="0 0 15 15">
  <defs>
    <clipPath id="clip-path">
      <rect id="Rectangle_1106" data-name="Rectangle 1106" width="15" height="15" transform="translate(1168 6026)" fill="#b7b7b7" stroke="#707070" stroke-width="1"/>
    </clipPath>
  </defs>
  <g id="Mask_Group_84" data-name="Mask Group 84" transform="translate(-1168 -6026)" clip-path="url(#clip-path)">
    <g id="instagram" transform="translate(1168 6026)">
      <g id="Group_2066" data-name="Group 2066" transform="translate(11.496 2.776)">
        <g id="Group_2065" data-name="Group 2065">
          <path id="Path_219" data-name="Path 219" d="M11.094,2.591a.364.364,0,1,0,.364.364A.365.365,0,0,0,11.094,2.591Z" transform="translate(-10.73 -2.591)" fill="#b7b7b7"/>
        </g>
      </g>
      <g id="Group_2068" data-name="Group 2068" transform="translate(4.272 4.272)">
        <g id="Group_2067" data-name="Group 2067">
          <path id="Path_220" data-name="Path 220" d="M7.215,3.987a3.228,3.228,0,1,0,3.228,3.228A3.232,3.232,0,0,0,7.215,3.987Z" transform="translate(-3.987 -3.987)" fill="#b7b7b7"/>
        </g>
      </g>
      <g id="Group_2070" data-name="Group 2070">
        <g id="Group_2069" data-name="Group 2069">
          <path id="Path_221" data-name="Path 221" d="M10.888,0H4.112A4.117,4.117,0,0,0,0,4.112v6.776A4.117,4.117,0,0,0,4.112,15h6.776A4.117,4.117,0,0,0,15,10.888V4.112A4.117,4.117,0,0,0,10.888,0ZM7.5,11.614A4.114,4.114,0,1,1,11.614,7.5,4.119,4.119,0,0,1,7.5,11.614ZM11.86,4.39a1.25,1.25,0,1,1,1.25-1.25A1.251,1.251,0,0,1,11.86,4.39Z" fill="#b7b7b7"/>
        </g>
      </g>
    </g>
  </g>
</svg>
