<svg xmlns="http://www.w3.org/2000/svg" xmlns:xlink="http://www.w3.org/1999/xlink" width="170" height="42" viewBox="0 0 170 42">
  <defs>
    <clipPath id="clip-path">
      <rect id="Rectangle_1039" data-name="Rectangle 1039" width="170" height="42"/>
    </clipPath>
  </defs>
  <g id="logo_VMMS" data-name="logo VMMS" clip-path="url(#clip-path)">
    <g id="logo_vmms-2" data-name="logo vmms">
      <g id="Group_6" data-name="Group 6" transform="translate(0 0.001)">
        <path id="Path_2" data-name="Path 2" d="M0,12.415H13.937l9.249,11.7s3.357-3.879,6.715-7.436c2.281-2.392,7.792-7.436,9.249-8.6C42.952,4.979,46.626,2.07,49.6,0h4.181S44.726,7.759,40.608,13.062A121.919,121.919,0,0,0,23.123,41.9Z" fill="#d4000e"/>
        <path id="Path_3" data-name="Path 3" d="M15.522,13.788v2.053H12.293v-5.07H44.918L41.435,13.85Z" transform="translate(-5.641 -4.87)" fill="#d4000e"/>
        <path id="Path_4" data-name="Path 4" d="M12.293,42.029l3.229,4.041V57.615H24.96L27.3,60.566H12.293Z" transform="translate(-5.641 -18.665)" fill="#d4000e"/>
        <path id="Path_5" data-name="Path 5" d="M47.042,47.4l-1.267,2.951H65.728V19.434L62.5,23.026V47.4Z" transform="translate(-21.005 -8.449)" fill="#d4000e"/>
        <path id="Path_6" data-name="Path 6" d="M88.507,10.771h9.438l9.5,8.935,9.5-8.935h9.438v36h-9.438V23.526l-9.5,9.064-9.438-8.935V46.77h-9.5Z" transform="translate(-40.612 -4.87)"/>
        <path id="Path_7" data-name="Path 7" d="M167.766,10.771h9.5l9.5,8.935,9.5-8.935h9.376v36h-9.438V23.526l-9.5,9.064-9.438-8.935V46.77h-9.5Z" transform="translate(-76.98 -4.87)"/>
        <path id="Path_8" data-name="Path 8" d="M274.428,10.835l-5.381,9H256.627a1.642,1.642,0,0,0-1.524,1.619,1.5,1.5,0,0,0,.449,1.07,1.465,1.465,0,0,0,1.071.419h10.266a14.472,14.472,0,0,1,7.729,2.719A11.669,11.669,0,0,1,279.052,36.6c-.57,3.5-2.408,5.892-5.322,8.158s-7.919,2.008-10.58,2.008H243.512l4.814-8.935h16.215c1.393.065,5.322.324,5.133-2.978-.064-1.231-.76-2.978-3.8-2.978-2.408,0-8.87.065-8.87.065s-7.286.388-10.326-6.151c-2.98-6.345,1.2-11.4,3.738-13.076s3.992-1.945,10.9-1.945C267.015,10.771,274.428,10.835,274.428,10.835Z" transform="translate(-111.736 -4.87)"/>
      </g>
      <path id="Path_9" data-name="Path 9" d="M305.1,0a3.107,3.107,0,0,0-3.168,2.951A3.065,3.065,0,0,0,305.1,5.9a3.107,3.107,0,0,0,3.168-2.951A3.107,3.107,0,0,0,305.1,0Zm0,5.324a2.407,2.407,0,0,1-1.757-.65,2.469,2.469,0,0,1-.777-1.723A2.479,2.479,0,0,1,305.1.577a2.408,2.408,0,0,1,1.757.65,2.468,2.468,0,0,1,.777,1.723A2.479,2.479,0,0,1,305.1,5.323Z" transform="translate(-138.544 0.002)"/>
      <path id="Path_10" data-name="Path 10" d="M306.866,4.253A1.131,1.131,0,0,0,307.373,4a.883.883,0,0,0,.253-1.026c-.191-.578-.95-.513-.95-.513h-1.52L305.093,5.6h.507V4.317h.7l.951,1.282h.7Zm-1.2-.385v-.9h.887c.191,0,.57.065.57.449,0,.449-.507.449-.507.449Z" transform="translate(-139.994 -1.109)"/>
    </g>
  </g>
</svg>
