<svg xmlns="http://www.w3.org/2000/svg" xmlns:xlink="http://www.w3.org/1999/xlink" width="14" height="14" viewBox="0 0 14 14">
  <defs>
    <clipPath id="clip-path">
      <rect id="Rectangle_1227" data-name="Rectangle 1227" width="14" height="14" transform="translate(1334 154)" fill="#fff" stroke="#707070" stroke-width="1"/>
    </clipPath>
  </defs>
  <g id="Mask_Group_88" data-name="Mask Group 88" transform="translate(-1334 -154)" clip-path="url(#clip-path)">
    <g id="menu" transform="translate(1334 154)">
      <g id="Group_2449" data-name="Group 2449">
        <path id="Path_226" data-name="Path 226" d="M.851,3.459h12.3a.851.851,0,0,0,0-1.7H.851a.851.851,0,1,0,0,1.7Z" fill="#fff"/>
        <path id="Path_227" data-name="Path 227" d="M13.149,6.149H.851a.851.851,0,1,0,0,1.7h12.3a.851.851,0,0,0,0-1.7Z" fill="#fff"/>
        <path id="Path_228" data-name="Path 228" d="M13.149,10.541H.851a.851.851,0,0,0,0,1.7h12.3a.851.851,0,0,0,0-1.7Z" fill="#fff"/>
      </g>
    </g>
  </g>
</svg>
