<svg xmlns="http://www.w3.org/2000/svg" xmlns:xlink="http://www.w3.org/1999/xlink" width="14" height="14" viewBox="0 0 14 14">
  <defs>
    <clipPath id="clip-path">
      <rect id="Rectangle_2" data-name="Rectangle 2" width="14" height="14" transform="translate(122 -27)" fill="#b7b7b7" stroke="#707070" stroke-width="1"/>
    </clipPath>
  </defs>
  <g id="phone" transform="translate(-122 27)" clip-path="url(#clip-path)">
    <g id="phone-2" data-name="phone" transform="translate(122.015 -27)">
      <g id="Group_2" data-name="Group 2" transform="translate(0 0)">
        <g id="Group_1" data-name="Group 1">
          <path id="Path_1" data-name="Path 1" d="M13.619,10.275,11.665,8.321A1.3,1.3,0,0,0,9.5,8.809a1.33,1.33,0,0,1-1.535.837A6.025,6.025,0,0,1,4.339,6.018a1.265,1.265,0,0,1,.837-1.535A1.3,1.3,0,0,0,5.664,2.32L3.711.366a1.394,1.394,0,0,0-1.884,0L.5,1.692c-1.326,1.4.14,5.094,3.419,8.373s6.978,4.815,8.373,3.419l1.326-1.326A1.394,1.394,0,0,0,13.619,10.275Z" transform="translate(-0.015 0)" fill="#b7b7b7"/>
        </g>
      </g>
    </g>
  </g>
</svg>
