<svg id="Group_2512" data-name="Group 2512" xmlns="http://www.w3.org/2000/svg" width="15" height="15" viewBox="0 0 15 15">
  <path id="Path_209" data-name="Path 209" d="M15.988,9.545a11.232,11.232,0,0,0-.62-4A1.985,1.985,0,0,0,14.2,4.57a37.626,37.626,0,0,0-5.7-.3,37.661,37.661,0,0,0-5.683.291,1.838,1.838,0,0,0-.995.718,6.518,6.518,0,0,0-.75,3.345c-.1,2.092-.1,4.191,0,6.284a12.941,12.941,0,0,0,.2,1.939,3.624,3.624,0,0,0,.484,1.319,1.857,1.857,0,0,0,1.015.756,21.747,21.747,0,0,0,4.429.32,51.038,51.038,0,0,0,6.95-.272,1.85,1.85,0,0,0,1.043-.756,2.738,2.738,0,0,0,.416-.97,14.3,14.3,0,0,0,.354-3.3C15.988,13.4,15.988,10.127,15.988,9.545ZM6.953,14.529v-6l4.034,3.016C9.855,12.434,8.363,13.443,6.953,14.529Z" transform="translate(-0.991 -4.258)" fill="#b7b7b7"/>
</svg>
